<svg xmlns="http://www.w3.org/2000/svg" viewBox="0 0 480 480" width="480" height="480" data-t2g-scale="28.203521296803956" data-t2g-offset-x="115.14027705815786" data-t2g-offset-y="40.0" data-t2g-bbox-minx="-5.453157373931708" data-t2g-bbox-miny="-7.091313098647159" data-t2g-canvas-size="480" font-family="PingFang SC, Source Han Sans SC, Noto Sans CJK SC, sans-serif" font-size="14.0"><rect width="100%" height="100%" fill="white"/><polygon data-id="trap" class="t2g-obj t2g-poly" points="268.94,240.00 156.12,240.00 214.00,399.02 240.00,160.49" fill="none" stroke="#222" stroke-width="1.6"/><line data-id="AB" class="t2g-obj t2g-seg" x1="268.94" y1="240.00" x2="156.12" y2="240.00" stroke="#222" stroke-width="1.6"/><line data-id="BC" class="t2g-obj t2g-seg" x1="156.12" y1="240.00" x2="214.00" y2="399.02" stroke="#222" stroke-width="1.6"/><line data-id="CD" class="t2g-obj t2g-seg" x1="214.00" y1="399.02" x2="240.00" y2="160.49" stroke="#222" stroke-width="1.6"/><line data-id="DA" class="t2g-obj t2g-seg" x1="240.00" y1="160.49" x2="268.94" y2="240.00" stroke="#222" stroke-width="1.6"/><line data-id="AC" class="t2g-obj t2g-seg" x1="268.94" y1="240.00" x2="214.00" y2="399.02" stroke="#222" stroke-width="1.6"/><line data-id="BD" class="t2g-obj t2g-seg" x1="156.12" y1="240.00" x2="240.00" y2="160.49" stroke="#222" stroke-width="1.6"/><circle data-id="A" class="t2g-obj t2g-point" cx="268.94" cy="240.00" r="3.0" fill="#222"/><text x="279.40" y="249.87" text-anchor="middle" fill="#222">A</text><circle data-id="B" class="t2g-obj t2g-point" cx="156.12" cy="240.00" r="3.0" fill="#222"/><text x="144.33" y="246.22" text-anchor="middle" fill="#222">B</text><circle data-id="C" class="t2g-obj t2g-point" cx="214.00" cy="399.02" r="3.0" fill="#222"/><text x="212.20" y="414.88" text-anchor="middle" fill="#222">C</text><circle data-id="D" class="t2g-obj t2g-point" cx="240.00" cy="160.49" r="3.0" fill="#222"/><text x="239.89" y="152.49" text-anchor="middle" fill="#222">D</text><circle data-id="O" class="t2g-obj t2g-point" cx="323.88" cy="80.98" r="3.0" fill="#222"/><text x="329.91" y="74.61" text-anchor="middle" fill="#222">O</text><path d="M 180.12 240.00 A 24.00 24.00 0 0 1 164.33 262.55" fill="none" stroke="#888" stroke-width="1"/></svg>