<svg xmlns="http://www.w3.org/2000/svg" viewBox="0 0 480 480" width="480" height="480" data-t2g-scale="34.67523903679745" data-t2g-offset-x="40.0" data-t2g-offset-y="98.01280558057354" data-t2g-bbox-minx="-5.439635107841564" data-t2g-bbox-miny="-6.992549378456687" data-t2g-canvas-size="480" font-family="PingFang SC, Source Han Sans SC, Noto Sans CJK SC, sans-serif" font-size="14.0"><rect width="100%" height="100%" fill="white"/><polygon data-id="quad" class="t2g-obj t2g-poly" points="228.62,139.52 398.49,139.52 282.47,340.48 112.60,340.48" fill="none" stroke="#222" stroke-width="1.6"/><line data-id="AB" class="t2g-obj t2g-seg" x1="228.62" y1="139.52" x2="398.49" y2="139.52" stroke="#222" stroke-width="1.6"/><line data-id="BC" class="t2g-obj t2g-seg" x1="398.49" y1="139.52" x2="282.47" y2="340.48" stroke="#222" stroke-width="1.6"/><line data-id="CD" class="t2g-obj t2g-seg" x1="282.47" y1="340.48" x2="112.60" y2="340.48" stroke="#222" stroke-width="1.6"/><line data-id="DA" class="t2g-obj t2g-seg" x1="112.60" y1="340.48" x2="228.62" y2="139.52" stroke="#222" stroke-width="1.6"/><line data-id="AC" class="t2g-obj t2g-seg" x1="228.62" y1="139.52" x2="282.47" y2="340.48" stroke="#222" stroke-width="1.6"/><line data-id="ABp" class="t2g-obj t2g-seg" x1="228.62" y1="139.52" x2="81.51" y2="224.46" stroke="#222" stroke-width="1.6"/><line data-id="CBp" class="t2g-obj t2g-seg" x1="282.47" y1="340.48" x2="81.51" y2="224.46" stroke="#222" stroke-width="1.6"/><line data-id="BpD" class="t2g-obj t2g-seg" x1="81.51" y1="224.46" x2="112.60" y2="340.48" stroke="#222" stroke-width="1.6"/><circle data-id="A" class="t2g-obj t2g-point" cx="228.62" cy="139.52" r="3.0" fill="#222"/><text x="230.79" y="131.72" text-anchor="middle" fill="#222">A</text><circle data-id="B" class="t2g-obj t2g-point" cx="398.49" cy="139.52" r="3.0" fill="#222"/><text x="409.04" y="137.80" text-anchor="middle" fill="#222">B</text><circle data-id="C" class="t2g-obj t2g-point" cx="282.47" cy="340.48" r="3.0" fill="#222"/><text x="289.59" y="354.14" text-anchor="middle" fill="#222">C</text><circle data-id="D" class="t2g-obj t2g-point" cx="112.60" cy="340.48" r="3.0" fill="#222"/><text x="104.17" y="353.03" text-anchor="middle" fill="#222">D</text><circle data-id="Bp" class="t2g-obj t2g-point" cx="81.51" cy="224.46" r="3.0" fill="#222"/><text x="69.62" y="226.84" text-anchor="middle" fill="#222">B'</text><circle data-id="E" class="t2g-obj t2g-point" cx="155.06" cy="266.92" r="3.0" fill="#222"/><text x="144.15" y="275.91" text-anchor="middle" fill="#222">E</text><line x1="313.56" y1="136.52" x2="313.56" y2="142.52" stroke="#222" stroke-width="1.2"/><line x1="156.56" y1="184.59" x2="153.56" y2="179.39" stroke="#222" stroke-width="1.2"/><line x1="344.08" y1="239.77" x2="338.88" y2="236.77" stroke="#222" stroke-width="1.2"/><line x1="342.08" y1="243.23" x2="336.88" y2="240.23" stroke="#222" stroke-width="1.2"/><line x1="182.22" y1="286.07" x2="185.22" y2="280.87" stroke="#222" stroke-width="1.2"/><line x1="178.76" y1="284.07" x2="181.76" y2="278.87" stroke="#222" stroke-width="1.2"/><path d="M 374.49 139.52 A 24.00 24.00 0 0 0 386.49 160.30" fill="none" stroke="#888" stroke-width="1"/><path d="M 276.26 317.30 A 24.00 24.00 0 0 1 294.47 319.70" fill="none" stroke="#888" stroke-width="1"/></svg>