<svg xmlns="http://www.w3.org/2000/svg" viewBox="0 0 480 480" width="480" height="480" data-t2g-scale="34.38289802195282" data-t2g-offset-x="95.36877635189168" data-t2g-offset-y="40.0" data-t2g-bbox-minx="-7.2064867218264" data-t2g-bbox-miny="-5.206487679981059" data-t2g-canvas-size="480" font-family="PingFang SC, Source Han Sans SC, Noto Sans CJK SC, sans-serif" font-size="14.0"><rect width="100%" height="100%" fill="white"/><polygon data-id="rect" class="t2g-obj t2g-poly" points="343.15,260.99 136.85,260.99 136.85,398.52 343.15,398.52" fill="none" stroke="#222" stroke-width="1.6"/><polygon data-id="quad" class="t2g-obj t2g-poly" points="343.15,260.99 136.85,219.01 136.85,398.52 343.15,81.48" fill="none" stroke="#222" stroke-width="1.6"/><line data-id="AB" class="t2g-obj t2g-seg" x1="343.15" y1="260.99" x2="136.85" y2="260.99" stroke="#222" stroke-width="1.6"/><line data-id="BC" class="t2g-obj t2g-seg" x1="136.85" y1="260.99" x2="136.85" y2="398.52" stroke="#222" stroke-width="1.6"/><line data-id="CD" class="t2g-obj t2g-seg" x1="136.85" y1="398.52" x2="343.15" y2="398.52" stroke="#222" stroke-width="1.6"/><line data-id="DA" class="t2g-obj t2g-seg" x1="343.15" y1="398.52" x2="343.15" y2="260.99" stroke="#222" stroke-width="1.6"/><line data-id="AE" class="t2g-obj t2g-seg" x1="343.15" y1="260.99" x2="136.85" y2="219.01" stroke="#222" stroke-width="1.6"/><line data-id="CF" class="t2g-obj t2g-seg" x1="136.85" y1="398.52" x2="343.15" y2="81.48" stroke="#222" stroke-width="1.6"/><line data-id="AF" class="t2g-obj t2g-seg" x1="343.15" y1="260.99" x2="343.15" y2="81.48" stroke="#222" stroke-width="1.6"/><line data-id="EC" class="t2g-obj t2g-seg" x1="136.85" y1="219.01" x2="136.85" y2="398.52" stroke="#222" stroke-width="1.6"/><circle data-id="A" class="t2g-obj t2g-point" cx="343.15" cy="260.99" r="3.0" fill="#222"/><text x="355.10" y="263.95" text-anchor="middle" fill="#222">A</text><circle data-id="B" class="t2g-obj t2g-point" cx="136.85" cy="260.99" r="3.0" fill="#222"/><text x="124.90" y="263.95" text-anchor="middle" fill="#222">B</text><circle data-id="C" class="t2g-obj t2g-point" cx="136.85" cy="398.52" r="3.0" fill="#222"/><text x="129.34" y="411.88" text-anchor="middle" fill="#222">C</text><circle data-id="D" class="t2g-obj t2g-point" cx="343.15" cy="398.52" r="3.0" fill="#222"/><text x="350.66" y="411.88" text-anchor="middle" fill="#222">D</text><circle data-id="E" class="t2g-obj t2g-point" cx="136.85" cy="219.01" r="3.0" fill="#222"/><text x="126.09" y="217.70" text-anchor="middle" fill="#222">E</text><circle data-id="F" class="t2g-obj t2g-point" cx="343.15" cy="81.48" r="3.0" fill="#222"/><text x="348.91" y="74.96" text-anchor="middle" fill="#222">F</text><polyline points="146.85,260.99 146.85,270.99 136.85,270.99" fill="none" stroke="#222" stroke-width="1.2"/><polyline points="136.85,388.52 146.85,388.52 146.85,398.52" fill="none" stroke="#222" stroke-width="1.2"/><polyline points="333.15,398.52 333.15,388.52 343.15,388.52" fill="none" stroke="#222" stroke-width="1.2"/><line x1="340.15" y1="171.23" x2="346.15" y2="171.23" stroke="#222" stroke-width="1.2"/><line x1="139.85" y1="308.77" x2="133.85" y2="308.77" stroke="#222" stroke-width="1.2"/><text x="310.84" y="171.23" text-anchor="middle" fill="#555" font-style="italic">5.22</text><text x="169.16" y="308.77" text-anchor="middle" fill="#555" font-style="italic">5.22</text></svg>