<svg xmlns="http://www.w3.org/2000/svg" viewBox="0 0 480 480" width="480" height="480" data-t2g-scale="17.867944980464248" data-t2g-offset-x="51.0071080213886" data-t2g-offset-y="40.0" data-t2g-bbox-minx="-10.90733061929398" data-t2g-bbox-miny="-12.639381426862855" data-t2g-canvas-size="480" font-family="PingFang SC, Source Han Sans SC, Noto Sans CJK SC, sans-serif" font-size="14.0"><rect width="100%" height="100%" fill="white"/><line data-id="AB" class="t2g-obj t2g-seg" x1="245.90" y1="214.16" x2="388.84" y2="214.16" stroke="#222" stroke-width="1.6"/><line data-id="AC" class="t2g-obj t2g-seg" x1="245.90" y1="214.16" x2="353.11" y2="399.85" stroke="#222" stroke-width="1.6"/><line data-id="AD" class="t2g-obj t2g-seg" x1="245.90" y1="214.16" x2="91.16" y2="124.82" stroke="#222" stroke-width="1.6"/><line data-id="DE" class="t2g-obj t2g-seg" x1="91.16" y1="124.82" x2="168.53" y2="80.15" stroke="#222" stroke-width="1.6"/><line data-id="DF" class="t2g-obj t2g-seg" x1="91.16" y1="124.82" x2="194.32" y2="124.82" stroke="#222" stroke-width="1.6"/><line data-id="MF" class="t2g-obj t2g-seg" x1="168.53" y1="169.49" x2="194.32" y2="124.82" stroke="#222" stroke-width="1.6"/><circle data-id="A" class="t2g-obj t2g-point" cx="245.90" cy="214.16" r="3.0" fill="#222"/><text x="252.41" y="228.24" text-anchor="middle" fill="#222">A</text><circle data-id="B" class="t2g-obj t2g-point" cx="388.84" cy="214.16" r="3.0" fill="#222"/><text x="400.70" y="219.99" text-anchor="middle" fill="#222">B</text><circle data-id="C" class="t2g-obj t2g-point" cx="353.11" cy="399.85" r="3.0" fill="#222"/><text x="359.17" y="414.21" text-anchor="middle" fill="#222">C</text><circle data-id="D" class="t2g-obj t2g-point" cx="91.16" cy="124.82" r="3.0" fill="#222"/><text x="80.28" y="123.75" text-anchor="middle" fill="#222">D</text><circle data-id="E" class="t2g-obj t2g-point" cx="168.53" cy="80.15" r="3.0" fill="#222"/><text x="162.65" y="73.69" text-anchor="middle" fill="#222">E</text><circle data-id="F" class="t2g-obj t2g-point" cx="194.32" cy="124.82" r="3.0" fill="#222"/><text x="188.52" y="118.31" text-anchor="middle" fill="#222">F</text><circle data-id="M" class="t2g-obj t2g-point" cx="168.53" cy="169.49" r="3.0" fill="#222"/><text x="157.12" y="169.76" text-anchor="middle" fill="#222">M</text><path d="M 269.90 214.16 A 24.00 24.00 0 0 1 257.90 234.94" fill="none" stroke="#888" stroke-width="1"/><text x="152.45" y="197.34" text-anchor="middle" fill="#555" font-style="italic">10</text><text x="251.26" y="208.80" text-anchor="middle" fill="#555" font-style="italic">60°</text></svg>